<?xml version="1.0" encoding="utf-8"?>
<!-- Generator: Adobe Illustrator 18.1.0, SVG Export Plug-In . SVG Version: 6.00 Build 0)  -->
<!DOCTYPE svg PUBLIC "-//W3C//DTD SVG 1.1//EN" "http://www.w3.org/Graphics/SVG/1.1/DTD/svg11.dtd">
<svg version="1.1" id="Calque_1" xmlns="http://www.w3.org/2000/svg" xmlns:xlink="http://www.w3.org/1999/xlink" x="0px" y="0px"
	 viewBox="0 0 800 400" enable-background="new 0 0 800 400" xml:space="preserve">
<polygon points="753.2,187.1 800,218.4 753.2,288.5 706.3,218.4 "/>
<polygon points="706.3,103.4 753.2,72.2 800,103.4 753.2,173.6 "/>
<polygon points="605.5,103.4 652.3,72.2 699.2,103.4 652.3,173.6 "/>
<polygon points="702.8,212.9 655.9,181.8 702.8,111.4 749.6,181.8 "/>
<polygon points="749.6,296.5 702.8,327.8 655.9,296.5 702.8,226.4 "/>
<polygon points="652.3,187.1 699.2,218.4 652.3,288.5 605.5,218.4 "/>
<polygon points="648.2,296.5 601.4,327.8 554.6,296.5 601.4,226.4 "/>
<polygon points="601.4,212.9 554.6,181.8 601.4,111.4 648.2,181.8 "/>
<polygon points="504.1,103.4 551,72.2 597.8,103.4 551,173.6 "/>
<polygon points="551,187.1 597.8,218.4 551,288.5 504.1,218.4 "/>
<polygon points="501.7,212.9 454.8,181.8 501.7,111.4 548.5,181.8 "/>
<polygon points="548.5,296.5 501.7,327.8 454.8,296.5 501.7,226.4 "/>
<polygon points="451.3,187.1 498.1,218.4 451.3,288.5 404.4,218.4 "/>
<polygon points="404.4,103.4 451.3,72.2 498.1,103.4 451.3,173.6 "/>
<polygon points="447.2,296.5 400.3,327.8 353.5,296.5 400.3,226.4 "/>
<polygon points="349.9,187.1 396.7,218.4 349.9,288.5 303.1,218.4 "/>
<polygon points="303.1,103.4 349.9,72.2 396.7,103.4 349.9,173.6 "/>
<polygon points="299.5,212.9 252.7,181.8 299.5,111.4 346.4,181.8 "/>
<polygon points="346.4,296.5 299.5,327.8 252.7,296.5 299.5,226.4 "/>
<polygon points="249,187.1 295.9,218.4 249,288.5 202.2,218.4 "/>
<polygon points="202.2,103.4 249,72.2 295.9,103.4 249,173.6 "/>
<polygon points="198.6,212.9 151.8,181.8 198.6,111.4 245.4,181.8 "/>
<polygon points="245.4,296.5 198.6,327.8 151.8,296.5 198.6,226.4 "/>
<polygon points="148.2,187.1 195,218.4 148.2,288.5 101.3,218.4 "/>
<polygon points="101.3,103.4 148.2,72.2 195,103.4 148.2,173.6 "/>
<polygon points="97.2,212.9 50.4,181.8 97.2,111.4 144.1,181.8 "/>
<polygon points="144.1,296.5 97.2,327.8 50.4,296.5 97.2,226.4 "/>
<polygon points="93.7,218.4 46.8,288.5 0,218.4 46.8,187.1 "/>
<polygon points="0,103.4 46.8,72.2 93.7,103.4 46.8,173.6 "/>

	<g id="IIZEXl.tif" clip-path="url(#SVGID_2_)">

			<image overflow="visible" width="339" height="427" id="Calque_1_1_" xlink:href="F8D720D2DBE887AF.png"  transform="matrix(0.2873 0 0 0.2873 350.8 108.1581)">
		</image>
	</g>
<g>
	<defs>
		<polygon id="SVGID_1_" points="400.3,212.9 353.5,181.8 400.3,111.4 447.2,181.8 		"/>
	</defs>
	<clipPath id="SVGID_2_">
		<use xlink:href="#SVGID_1_"  overflow="visible"/>
	</clipPath>
	
</g>
</svg>
